<?xml version="1.0" standalone="no"?><!DOCTYPE svg PUBLIC "-//W3C//DTD SVG 1.1//EN" "http://www.w3.org/Graphics/SVG/1.1/DTD/svg11.dtd"><svg t="1726275350558" class="icon" viewBox="0 0 1024 1024" version="1.1" xmlns="http://www.w3.org/2000/svg" p-id="1501" xmlns:xlink="http://www.w3.org/1999/xlink" width="200" height="200"><path d="M512 86.109091c235.054545 0 425.890909 190.836364 425.890909 425.890909S747.054545 937.890909 512 937.890909 86.109091 747.054545 86.109091 512 276.945455 86.109091 512 86.109091M512 0C228.072727 0 0 228.072727 0 512s228.072727 512 512 512 512-228.072727 512-512S795.927273 0 512 0z" fill="#231815" p-id="1502"></path><path d="M593.454545 679.563636h-165.236363c-46.545455 0-86.109091-39.563636-86.109091-86.109091v-165.236363c0-46.545455 39.563636-86.109091 86.109091-86.109091h165.236363c46.545455 0 86.109091 39.563636 86.109091 86.109091v165.236363c0 48.872727-37.236364 86.109091-86.109091 86.109091z" fill="#231815" p-id="1503"></path></svg>