<?xml version="1.0" standalone="no"?><!DOCTYPE svg PUBLIC "-//W3C//DTD SVG 1.1//EN" "http://www.w3.org/Graphics/SVG/1.1/DTD/svg11.dtd"><svg t="1729245868189" class="icon" viewBox="0 0 1024 1024" version="1.1" xmlns="http://www.w3.org/2000/svg" p-id="1949" xmlns:xlink="http://www.w3.org/1999/xlink" width="16" height="16"><path d="M960.672 315.284c17.792-11.916 17.952-33.676-0.956-48.464a1602.508 1602.508 0 0 0-104.548-74.832c-20.316-13.432-52.248-12.584-69.692 1.852-160.852 131.924-277.352 295.504-349.236 467.436-7.868 18.648-28.944 29.332-47.948 24.324-62.236-16.62-161.976-47.232-228.992-52.42-20.504-1.668-42.316 15.248-47.464 36.808a1410.476 1410.476 0 0 0-22.76 114.688c-3.308 21.548 10.6 38.28 29.968 38.096 121.688-0.896 272.088 40.556 376.644 80.216 16.692 6.264 33.924-2.476 39.42-20.008a1040.36 1040.36 0 0 1 33.848-93.08c7.116-17.332 19.968-45.44 28.564-62.428 77.784-156.48 199.26-301.76 363.152-412.188z" fill="#74CC77" p-id="1950"></path></svg>