<?xml version="1.0" standalone="no"?><!DOCTYPE svg PUBLIC "-//W3C//DTD SVG 1.1//EN" "http://www.w3.org/Graphics/SVG/1.1/DTD/svg11.dtd"><svg t="1729246012932" class="icon" viewBox="0 0 1024 1024" version="1.1" xmlns="http://www.w3.org/2000/svg" p-id="2111" xmlns:xlink="http://www.w3.org/1999/xlink" width="16" height="16"><path d="M642.937852 511.552838c81.14641-89.472559 166.531913-171.249467 255.06096-245.084786 17.931179-15.002271 20.775127-41.644157 6.416769-60.098515a2447.046987 2447.046987 0 0 1-74.877205-101.255266c-13.633956-19.491773-40.199825-23.981275-59.186306-9.07738-93.362865 73.383686-183.796821 154.865467-270.219738 244.221764C424.530725 241.583511 353.816594 135.413939 289.089956 22.170271c-13.092891-22.957275-39.663231-27.451249-59.190777-9.07738a3096.240629 3096.240629 0 0 0-102.386585 101.147947c-18.959651 19.540961-22.760524 55.15738-8.35745 78.239861C189.864803 306.274376 266.333904 412.761432 347.480314 511.552838c-81.14641 98.795878-157.615511 205.282934-228.320698 319.081083-14.398603 23.086952-10.597729 58.685485 8.35745 78.230917a3100.931354 3100.931354 0 0 0 102.391056 101.143476c19.527546 18.364926 46.102358 13.879895 59.190778-9.086323 64.717694-113.234725 135.427354-219.395354 211.02896-318.070498 86.422917 89.356297 176.856873 170.838079 270.215267 244.226236 18.990952 14.894952 45.552349 10.40545 59.190777-9.086323a2442.468052 2442.468052 0 0 1 74.877205-101.250795c14.353886-18.467773 11.51441-45.096245-6.416768-60.098515-88.524576-73.830847-173.910079-155.612227-255.060961-245.089258z" fill="#FF566B" p-id="2112"></path></svg>