<?xml version="1.0" standalone="no"?><!DOCTYPE svg PUBLIC "-//W3C//DTD SVG 1.1//EN" "http://www.w3.org/Graphics/SVG/1.1/DTD/svg11.dtd"><svg t="1729246069249" class="icon" viewBox="0 0 1024 1024" version="1.1" xmlns="http://www.w3.org/2000/svg" p-id="2581" xmlns:xlink="http://www.w3.org/1999/xlink" width="16" height="16"><path d="M831.570791 125.52497c-64.054468-13.582162-128.117651-23.094468-192.167761-28.541276-0.601328-15.076766-1.237515-30.144817-1.89549-45.212868-1.163438-24.811302-21.207694-47.265226-44.402383-48.899269a1188.467472 1188.467472 0 0 0-165.077514 0c-23.199047 1.634043-43.238945 24.092323-44.402383 48.899269-0.666689 15.068051-1.298519 30.136102-1.899847 45.212868-64.058826 5.446809-128.117651 14.959115-192.172119 28.541276-23.952885 5.185362-45.949277 28.632783-48.541958 51.287149A3428.308426 3428.308426 0 0 0 128.544681 313.431149c254.670979-33.617702 509.350672-33.617702 764.017293 0a3419.541243 3419.541243 0 0 0-12.462297-136.627745c-2.588323-22.650009-24.580357-46.101787-48.528886-51.287149z" fill="#82B34C" p-id="2582"></path><path d="M133.28994 303.134502c-9.982911 208.390536-1.124221 416.781072 26.580426 625.171609 3.093787 22.650009 24.462706 47.060426 47.151932 53.248 202.869651 54.337362 405.739302 54.337362 608.617668 0 22.689226-6.187574 44.053787-30.597991 47.147574-53.248 27.709004-208.390536 36.567694-416.776715 26.589141-625.171609a4117.992034 4117.992034 0 0 0-756.086741 0z" fill="#94C95A" p-id="2583"></path><path d="M246.74914 468.743626h91.497669c0 122.605481 2.518604 245.219677 7.555812 367.829514a1919.115438 1919.115438 0 0 1-87.506247-9.77811c-7.699609-119.350468-11.547234-238.700936-11.547234-358.051404zM452.621072 468.743626H544.114383c0 124.958502-0.474962 249.925719-1.4336 374.892936-29.168749 0.479319-58.337498 0.291949-87.506247-0.588256a27384.505191 27384.505191 0 0 1-2.557821-374.30468zM667.648 468.743626h91.502026c0 120.04766-3.607966 240.095319-10.819541 360.151693a1894.378213 1894.378213 0 0 1-87.501889 9.02863 10012.09246 10012.09246 0 0 0 6.815047-369.180323z" fill="#E5EFE4" p-id="2584"></path></svg>