<?xml version="1.0" standalone="no"?><!DOCTYPE svg PUBLIC "-//W3C//DTD SVG 1.1//EN" "http://www.w3.org/Graphics/SVG/1.1/DTD/svg11.dtd"><svg t="1729246091884" class="icon" viewBox="0 0 1024 1024" version="1.1" xmlns="http://www.w3.org/2000/svg" p-id="2747" xmlns:xlink="http://www.w3.org/1999/xlink" width="16" height="16"><path d="M704.628 833.688L102.296 948.588a2078.292 2078.292 0 0 1 0-778.892c109.108 20.808 218.216 41.624 327.32 62.44a1741.984 1741.984 0 0 0-11.572 67.944 8227.416 8227.416 0 0 0-244.48-6.592 1988.064 1988.064 0 0 0-0.784 525.408 12836.892 12836.892 0 0 0 458.732-32.736 1528 1528 0 0 1-15.716-165.788c21.352-0.852 42.708-1.712 64.052-2.568a1465.228 1465.228 0 0 0 24.78 215.884z" fill="#858585" p-id="2748"></path><path d="M410.64 427.22l371.024-371.024c13.176-13.168 33.424-14.456 45.012-2.868l94.836 94.828c11.592 11.588 10.3 31.848-2.868 45.012l-371.032 371.032" fill="#FFBF00" p-id="2749"></path><path d="M410.64 427.22l-60.776 197.744 197.744-60.764z" fill="#D59758" p-id="2750"></path><path d="M378.056 533.232l63.544 63.54-91.736 28.192z" fill="#666666" p-id="2751"></path></svg>